<?xml version="1.0" standalone="no"?>
<!DOCTYPE svg PUBLIC "-//W3C//DTD SVG 20010904//EN" "http://www.w3.org/TR/2001/REC-SVG-20010904/DTD/svg10.dtd">
<svg version="1.0" xmlns="http://www.w3.org/2000/svg"
    width="300.000000pt" height="300.000000pt" viewBox="0 0 300.000000 300.000000"
    preserveAspectRatio="xMidYMid meet">
    <metadata> Created by potrace 1.10, written by Peter Selinger 2001-2011 </metadata>
    <g transform="translate(0.000000,300.000000) scale(0.100000,-0.100000)"
        fill="#000000" stroke="none">
        <path
            d="M1405 2839 c-27 -6 -71 -17 -97 -25 -26 -9 -53 -12 -59 -8 -8 5 -9 3
-4 -6 6 -10 4 -12 -11 -6 -10 4 -15 4 -11 0 9 -9 -30 -37 -41 -30 -11 7 -75
-59 -78 -80 -2 -9 -16 -31 -33 -48 -33 -34 -81 -130 -81 -161 0 -17 2 -18 11
-5 8 11 9 8 4 -14 -16 -75 -22 -117 -15 -109 4 4 15 41 24 81 23 103 43 147
82 181 61 54 142 58 232 12 l39 -20 69 24 c85 30 142 31 228 4 50 -15 79 -32
113 -65 32 -30 55 -44 74 -44 46 0 112 -90 139 -188 18 -67 14 -165 -8 -214
-24 -53 -98 -123 -159 -149 -57 -24 -304 -68 -428 -76 -135 -8 -291 32 -346
90 -21 22 -21 22 -10 0 6 -12 17 -28 25 -35 47 -47 60 -133 26 -175 -23 -30
-26 -53 -6 -53 22 0 55 64 62 121 5 39 10 49 22 44 60 -23 116 -27 262 -22 34
2 44 -1 42 -12 -3 -12 -1 -12 14 0 10 8 15 9 11 3 -7 -13 50 -13 71 0 6 4 16
5 21 1 5 -3 11 5 13 17 3 20 11 24 68 31 54 7 147 33 223 62 24 10 19 -13 -8
-37 -11 -9 -16 -17 -12 -18 5 0 1 -7 -7 -16 -14 -13 -22 -44 -13 -44 2 0 16
10 30 23 36 31 70 84 87 135 7 24 20 46 27 50 20 12 43 137 41 227 l-1 80 -7
-60 -6 -60 -8 40 c-5 22 -10 49 -12 60 -7 40 -69 147 -97 168 -15 12 -48 39
-71 59 -98 86 -205 110 -372 84 -91 -13 -104 -13 -145 1 -24 9 -77 16 -116 17
-40 0 -73 2 -73 3 0 1 67 43 98 60 13 7 60 25 105 40 116 39 210 37 330 -6
106 -37 109 -37 77 -8 -44 39 -92 60 -165 73 -81 15 -102 15 -170 3z" />
        <path
            d="M1760 2783 c13 -10 49 -37 80 -61 l55 -44 -50 45 c-27 25 -63 53 -80
62 -30 16 -30 16 -5 -2z" />
        <path d="M1925 2620 c47 -70 55 -77 25 -22 -13 23 -32 50 -43 60 -10 9 -2 -8
18 -38z" />
        <path
            d="M1144 2434 c-21 -31 -24 -89 -5 -106 10 -11 17 -7 37 15 29 34 31 57
4 64 -24 6 -21 29 4 27 21 -2 15 20 -7 24 -9 2 -24 -9 -33 -24z" />
        <path
            d="M1536 2444 c-23 -22 -20 -48 10 -84 32 -37 72 -38 90 -1 32 63 -52
134 -100 85z m47 -10 c12 -12 -6 -34 -29 -34 -26 0 -30 10 -12 28 13 13 31 16
41 6z" />
        <path
            d="M1885 2433 c2 -10 8 -31 14 -46 6 -15 10 -31 10 -35 -1 -4 0 -25 1
-47 l2 -40 9 50 c9 54 -2 105 -26 125 -11 10 -13 8 -10 -7z" />
        <path
            d="M1284 2355 c-22 -25 -65 -74 -96 -110 -32 -35 -58 -69 -58 -74 0 -5
9 -19 20 -32 16 -20 19 -21 20 -6 0 9 -6 17 -12 17 -9 0 -8 4 2 10 10 6 11 10
3 10 -25 0 -12 21 45 76 92 89 96 90 191 34 37 -22 88 -47 114 -56 52 -18 84
-54 47 -54 -26 0 -92 -27 -105 -43 -5 -7 -27 -25 -48 -41 -21 -15 -36 -30 -33
-33 3 -3 11 -1 18 4 7 5 50 24 94 42 77 31 124 61 124 81 0 4 -21 24 -47 43
-27 20 -73 61 -103 92 -55 56 -96 85 -123 85 -8 0 -32 -20 -53 -45z m81 -11
l27 -27 -39 8 c-47 8 -49 11 -33 30 16 19 14 20 45 -11z" />
        <path
            d="M955 2290 c-9 -75 0 -143 26 -195 11 -22 16 -31 13 -20 -30 90 -35
125 -29 198 7 91 0 103 -10 17z" />
        <path
            d="M1186 2203 c6 -4 14 -20 18 -35 5 -23 4 -27 -11 -21 -14 5 -12 0 6
-20 25 -28 37 -35 25 -16 -4 7 -7 30 -8 53 -1 33 -5 41 -21 44 -12 2 -16 0 -9
-5z" />
        <path
            d="M1014 2128 c5 -47 44 -138 58 -138 14 0 9 23 -17 75 -13 28 -25 57
-25 65 0 8 -5 22 -11 30 -8 11 -9 3 -5 -32z" />
        <path d="M1280 2040 c0 -22 20 -26 38 -8 19 19 14 28 -13 28 -18 0 -25 -5 -25
-20z" />
        <path
            d="M1910 1763 c25 -21 62 -56 82 -78 30 -32 36 -35 32 -17 -10 35 -75
100 -119 118 l-40 16 45 -39z" />
        <path d="M1377 1778 c-7 -4 17 -8 52 -8 35 0 61 3 57 7 -9 10 -95 10 -109 1z" />
        <path
            d="M1317 1732 c-116 -3 -120 -3 -170 -37 -76 -50 -87 -62 -87 -96 0 -39
-29 -101 -42 -93 -6 4 -8 1 -6 -7 3 -8 1 -25 -4 -39 -6 -14 -12 -36 -14 -50
-28 -204 -30 -209 -99 -282 -94 -99 -141 -170 -170 -257 -9 -29 -20 -50 -23
-47 -10 10 -3 192 9 243 6 26 13 58 14 70 5 37 26 94 71 192 24 51 41 98 37
104 -3 5 -1 7 4 4 14 -9 46 40 37 55 -4 6 -3 8 3 5 14 -9 37 19 27 34 -4 7 -3
9 3 6 5 -3 27 12 48 33 22 22 43 40 47 40 4 0 8 -17 9 -37 1 -37 1 -36 19 21
10 32 22 76 25 98 7 37 6 39 -11 30 -32 -17 -141 -133 -195 -207 -123 -168
-200 -396 -199 -588 1 -68 26 -207 40 -221 17 -17 35 14 70 121 37 115 63 162
139 244 32 35 64 75 72 89 13 23 15 9 20 -140 5 -150 9 -174 37 -260 31 -93
41 -112 116 -234 54 -89 48 -156 -14 -156 -40 0 -178 -37 -228 -61 -48 -24
-102 -66 -102 -80 0 -5 37 -9 83 -9 80 0 82 1 99 30 11 20 43 42 99 70 l82 42
66 -16 c36 -9 88 -18 115 -20 27 -2 55 -11 63 -19 13 -12 8 -16 -34 -31 -97
-35 -234 -49 -248 -26 -3 6 -21 17 -38 26 l-32 15 25 -21 c24 -20 25 -21 6
-35 -11 -8 -34 -15 -52 -15 -18 0 -45 -5 -59 -10 -23 -9 -25 -13 -15 -25 7 -8
22 -13 34 -10 11 2 71 11 131 20 150 22 288 53 311 70 18 13 16 16 -28 58 -38
35 -48 51 -48 76 0 45 31 54 146 46 125 -9 186 -47 155 -96 -9 -15 -8 -19 1
-19 9 0 9 -3 -1 -9 -8 -5 -20 -7 -26 -4 -13 4 -55 -41 -55 -59 0 -20 67 -81
108 -99 60 -26 91 -24 139 11 l41 30 113 -29 c63 -15 118 -25 123 -21 13 13
-12 74 -42 102 -32 31 -76 54 -150 79 -74 26 -82 34 -82 87 0 37 9 59 49 122
78 121 115 258 126 460 9 170 15 178 77 111 56 -61 72 -123 65 -255 -5 -94
-14 -162 -29 -225 -15 -63 111 70 160 169 25 51 27 66 30 205 3 106 -1 171
-11 221 -22 105 -96 284 -81 198 2 -16 9 -40 13 -54 11 -30 24 -79 27 -100 1
-8 6 -33 12 -55 11 -40 16 -146 13 -260 -2 -67 -21 -135 -51 -180 -24 -36 -24
-34 -4 52 27 114 5 275 -58 413 -16 35 -26 70 -23 78 2 7 1 11 -4 8 -5 -4 -22
15 -37 41 -47 82 -110 158 -201 243 -103 96 -137 117 -159 99 -13 -11 -11 -16
12 -35 14 -13 36 -26 48 -30 32 -10 139 -98 193 -159 68 -76 140 -200 176
-302 29 -82 31 -97 31 -228 0 -97 -4 -154 -15 -184 -14 -44 -15 -41 -14 105 0
149 -9 220 -24 195 -5 -8 -22 25 -45 87 -43 114 -118 249 -171 307 -20 22 -32
31 -26 19 5 -11 17 -26 25 -33 9 -7 22 -25 30 -40 7 -14 30 -57 50 -94 32 -59
62 -157 49 -157 -2 0 -14 7 -27 16 -23 14 -25 14 -31 -5 -3 -12 -15 -26 -25
-31 -20 -11 -25 -41 -35 -195 -3 -44 -7 -87 -9 -95 -1 -8 -6 -37 -10 -65 -13
-87 -48 -176 -98 -247 -10 -15 -29 -57 -42 -93 l-24 -65 26 0 c26 -1 26 -1 7
-16 -11 -8 -35 -14 -55 -12 -29 3 -35 7 -33 25 2 13 -9 34 -27 52 -17 16 -30
34 -30 40 0 5 36 46 80 91 43 45 93 107 111 138 29 52 32 66 37 167 4 102 2
118 -28 219 -58 200 -120 345 -166 391 -15 15 -20 26 -13 31 18 11 0 54 -43
105 -22 26 -37 52 -33 58 4 7 0 8 -11 4 -12 -4 -15 -3 -10 5 4 7 2 12 -3 12
-18 0 -13 -9 44 -83 58 -74 67 -94 38 -82 -52 19 -72 17 -97 -10 -15 -16 -31
-46 -37 -69 -28 -101 -18 -97 -85 -32 -46 46 -53 57 -34 51 62 -18 75 -17 98
8 14 15 22 34 20 48 -3 21 -5 20 -27 -13 l-25 -36 -55 31 c-31 16 -59 33 -63
36 -4 3 31 6 77 6 46 0 87 3 91 7 15 16 -45 173 -69 180 -7 1 -65 2 -130 0z
m158 -67 c14 -30 27 -65 30 -77 6 -22 4 -23 -35 -20 -68 7 -132 -7 -137 -29
-3 -10 -7 -19 -9 -19 -5 0 -124 92 -124 96 0 2 5 15 12 29 9 19 9 28 0 37 -32
32 -14 38 114 38 l125 0 24 -55z m-282 8 c7 -36 3 -39 -29 -24 -26 11 -26 12
-9 31 24 27 32 25 38 -7z m-64 -48 c69 -40 189 -141 297 -250 l112 -112 4 96
c3 71 9 106 24 134 l20 39 52 -57 c62 -68 97 -139 159 -322 41 -120 47 -151
51 -241 3 -63 0 -120 -8 -146 -14 -51 -69 -126 -169 -231 -65 -69 -76 -77 -93
-66 -25 15 -185 18 -200 3 -20 -20 -61 -13 -117 19 -102 59 -184 162 -201 256
-5 26 -16 80 -24 118 -9 39 -21 128 -26 199 -9 119 -8 139 15 255 14 69 34
157 46 195 13 46 18 81 14 104 -3 19 -3 32 2 30 4 -2 23 -12 42 -23z m154
-1161 c28 -13 33 -21 33 -47 0 -18 3 -42 7 -54 10 -28 1 -29 -71 -8 -57 17
-69 35 -22 35 30 0 30 0 10 20 -24 24 -27 70 -5 70 8 0 29 -7 48 -16z m562
-155 c18 -34 19 -81 3 -97 -17 -17 -22 -15 -60 15 -20 16 -26 19 -15 7 21 -25
22 -34 3 -34 -8 0 -18 -9 -21 -20 -3 -11 -10 -20 -14 -20 -4 0 -16 9 -26 20
-10 11 -25 20 -33 20 -8 0 -12 6 -8 15 6 18 -2 45 -15 45 -5 0 -9 -12 -9 -26
0 -34 -24 -26 -28 9 -3 23 0 27 23 27 14 0 24 4 21 8 -2 4 4 19 14 32 14 19
31 26 72 30 66 7 75 4 93 -31z m194 -67 c13 -10 31 -29 39 -42 11 -20 9 -19
-13 5 -23 26 -26 27 -20 8 8 -28 9 -28 -84 -3 -81 21 -103 38 -70 56 27 14
116 0 148 -24z" />
        <path
            d="M1705 252 c-7 -4 -2 -16 12 -31 18 -19 23 -20 23 -8 0 9 -5 19 -10
22 -6 4 -8 11 -5 16 7 11 -6 12 -20 1z" />
    </g>
</svg>